<svg width="162" height="100" viewBox="0 0 162 100" fill="none" xmlns="http://www.w3.org/2000/svg">
<path d="M61.6551 38.4828C59.2643 42.2529 55.7241 45.1954 51.0345 47.3104C56 49.4253 60.046 52.4598 63.1724 56.4138C66.2988 60.2759 67.862 65.1494 67.862 71.0345C67.862 75.2644 67.0804 79.0805 65.5172 82.4828C63.954 85.8851 61.7011 88.8276 58.7586 91.3104C55.8161 93.7012 52.2299 95.5862 48 96.9655C43.862 98.2529 39.2184 98.8966 34.0689 98.8966C28.9195 98.8966 24.2299 98.2529 20 96.9655C15.7701 95.5862 12.1839 93.7012 9.24137 91.3104C6.29885 88.8276 4 85.8851 2.34483 82.4828C0.781609 79.0805 0 75.2644 0 71.0345C0 65.2414 1.51724 60.3678 4.55172 56.4138C7.67816 52.4598 11.7701 49.4253 16.8276 47.3104C12.1379 45.1954 8.55172 42.2529 6.06896 38.4828C3.67816 34.7126 2.48276 30.5747 2.48276 26.069C2.48276 22.7586 3.08046 19.5862 4.27586 16.5517C5.56322 13.4253 7.49425 10.7126 10.069 8.41379C12.6437 6.02299 15.908 4.13793 19.8621 2.75862C23.8161 1.28736 28.5517 0.551725 34.0689 0.551725C39.2184 0.551725 43.7241 1.28736 47.5862 2.75862C51.5402 4.13793 54.8046 6.02299 57.3793 8.41379C60.046 10.7126 62.023 13.3793 63.3103 16.4138C64.6896 19.4483 65.3793 22.6207 65.3793 25.931C65.3793 30.5287 64.1379 34.7126 61.6551 38.4828ZM34.0689 83.5862C38.5747 83.5862 42.0689 82.3448 44.5517 79.8621C47.0345 77.2874 48.2758 73.8391 48.2758 69.5173C48.2758 65.1954 47.0345 61.7471 44.5517 59.1724C42.0689 56.5057 38.5747 55.1724 34.0689 55.1724C29.5632 55.1724 26.023 56.5057 23.4483 59.1724C20.8736 61.7471 19.5862 65.1954 19.5862 69.5173C19.5862 73.8391 20.8736 77.2874 23.4483 79.8621C26.023 82.3448 29.5632 83.5862 34.0689 83.5862ZM34.0689 40C37.931 40 40.8276 38.8506 42.7586 36.5517C44.7816 34.2529 45.7931 31.3563 45.7931 27.8621C45.7931 24.6437 44.8735 21.8391 43.0345 19.4483C41.2873 17.0575 38.2988 15.8621 34.0689 15.8621C29.8391 15.8621 26.7586 17.0575 24.8276 19.4483C22.9885 21.8391 22.069 24.6437 22.069 27.8621C22.069 31.3563 23.0804 34.2529 25.1034 36.5517C27.2184 38.8506 30.2069 40 34.0689 40Z" fill="white"/>
<path d="M147.636 100C144.417 96.8736 141.245 93.5173 138.118 89.931C134.992 86.2529 131.912 82.4828 128.877 78.6207C125.843 74.7586 122.946 70.8966 120.187 67.0345C117.429 63.0805 114.9 59.3103 112.601 55.7241L102.808 67.5862V97.5172H83.084V0H102.808V41.931L136.739 0H158.67L124.601 41.2414C131.038 50.5287 137.245 58.8966 143.222 66.3448C149.291 73.7931 155.544 80.8736 161.981 87.5862L147.636 100Z" fill="white"/>
</svg>
