<svg width="30" height="18" viewBox="0 0 30 18" fill="none" xmlns="http://www.w3.org/2000/svg">
<path fill-rule="evenodd" clip-rule="evenodd" d="M0 2.25477C0 1.40874 0.746193 0.7229 1.66667 0.7229H28.3333C29.2538 0.7229 30 1.40874 30 2.25477C30 3.1008 29.2538 3.78664 28.3333 3.78664H1.66667C0.746193 3.78664 0 3.1008 0 2.25477Z" fill="#1089FF"/>
<path fill-rule="evenodd" clip-rule="evenodd" d="M0 9.1482C0 8.30217 0.746193 7.61633 1.66667 7.61633H28.3333C29.2538 7.61633 30 8.30217 30 9.1482C30 9.99426 29.2538 10.6801 28.3333 10.6801H1.66667C0.746193 10.6801 0 9.99426 0 9.1482Z" fill="#1089FF"/>
<path fill-rule="evenodd" clip-rule="evenodd" d="M0 16.0416C0 15.1956 0.746193 14.5098 1.66667 14.5098H28.3333C29.2538 14.5098 30 15.1956 30 16.0416C30 16.8877 29.2538 17.5735 28.3333 17.5735H1.66667C0.746193 17.5735 0 16.8877 0 16.0416Z" fill="#1089FF"/>
</svg>
