<svg width="88" height="101" viewBox="0 0 88 101" fill="none" xmlns="http://www.w3.org/2000/svg">
<path d="M35.3158 3.31925L27.2105 5.94269L27.0947 10.9195L26.9789 15.9349L24.2 16.8223C22.6947 17.3238 21.1895 17.8254 20.9579 17.9025C20.5719 18.0568 20.4561 16.938 20.4561 13.08V8.02602L17.6772 8.95194C16.1333 9.45348 11.5018 10.9195 7.44912 12.2312L0 14.5846V23.0722C0 33.9518 0.77193 40.9734 2.81754 48.5737L3.2807 50.3484L23.6596 43.9441L44 37.5784L60.9825 42.9024C76.9228 47.9178 77.9649 48.3036 77.7333 49.0366C76.9228 51.6215 75.1474 56.2125 74.7614 56.6755C74.3754 57.177 72.2912 56.6369 59.1298 52.5088L44 47.7249L25.3579 53.5505C15.1298 56.7527 6.67719 59.4533 6.6 59.5304C6.36842 59.7233 10.7684 67.7866 13.007 71.2588C14.2035 73.0334 16.1719 75.8498 17.407 77.4702L19.6456 80.4408L31.8035 76.5828L44 72.7634L52.1825 75.3483C56.6982 76.7371 60.4807 77.9717 60.5579 78.0103C61.407 78.859 45.814 92.4778 44 92.4778C43.6526 92.4778 41.8386 91.2818 39.9474 89.8544L36.4737 87.2309L32.7298 88.3883C30.6456 89.0442 28.9474 89.6615 28.9474 89.8158C28.9474 90.3173 35.393 95.487 38.9439 97.8404C44.193 101.351 43.6912 101.235 46.4316 99.5765C50.0211 97.3775 55.3474 93.288 59.2842 89.7C65.5368 84.0288 73.4105 74.8081 72.4842 74.3452C72.214 74.1908 65.6912 72.1075 57.9719 69.7156L44 65.3174L33.2702 68.6739C27.4035 70.5257 22.4632 72.0304 22.2702 72.0304C21.9228 72.0304 16.9825 64.5458 16.9825 64.0057C16.9825 63.7742 17.9088 63.3113 18.9895 63.0026C20.1088 62.6554 26.207 60.765 32.4982 58.7974L44 55.1709L61.0211 60.4949C70.3614 63.4656 78.1193 65.8576 78.1965 65.8576C78.4667 65.8576 81.3614 59.5304 82.8281 55.6724C84.4491 51.4672 86.5333 43.7897 86.1474 43.4811C85.6842 43.0567 44.8105 30.3639 44 30.3639C43.5368 30.3639 35.4702 32.7944 26.014 35.7651C16.5579 38.7358 8.68421 41.1663 8.49123 41.1663C7.91228 41.1663 7.17895 33.4503 7.17895 26.7374L7.14035 19.8315L10.3439 18.7513L13.5088 17.671V22.6864C13.5088 25.4256 13.5474 27.6633 13.6246 27.6633C13.6632 27.6633 18.2175 26.1972 23.7368 24.4611L33.7719 21.259L33.8877 16.2436L34.0035 11.2282L38.9825 9.64638L44 8.10318L49.0175 9.64638L53.9965 11.2282L54.1123 16.2436L54.2281 21.259L64.2632 24.4611C69.7825 26.1972 74.3368 27.6633 74.414 27.6633C74.4526 27.6633 74.4912 25.4256 74.4912 22.6864V17.671L77.6947 18.7513L80.8597 19.8315L80.9754 24.8469L81.0912 29.8623L83.9474 30.7111C85.4912 31.1355 87.0737 31.637 87.3825 31.7528C87.9228 31.9457 88 31.0197 88 23.2651V14.5846L80.5895 12.2312C76.4982 10.9195 71.8667 9.45348 70.3614 8.95194L67.5439 8.02602V13.08C67.5439 16.938 67.4281 18.0568 67.0807 17.9025C66.8105 17.8254 65.3053 17.3238 63.8 16.8223L61.0211 15.9349L60.9053 10.9195L60.7895 5.94269L52.4912 3.31925C47.9368 1.85321 44.0386 0.695804 43.807 0.695804C43.614 0.734384 39.793 1.89179 35.3158 3.31925Z" fill="white"/>
</svg>
