<svg width="104" height="104" viewBox="0 0 104 104" fill="none" xmlns="http://www.w3.org/2000/svg">
<g filter="url(#filter0_d)">
<path d="M51.9999 14C32.1177 14 16 30.1177 16 49.9999C16 69.8821 32.1177 85.9998 51.9999 85.9998C71.8821 85.9998 87.9998 69.8821 87.9998 49.9999C87.9998 30.1177 71.8823 14 51.9999 14ZM64.268 74.8593C63.3389 75.9333 61.7149 76.0507 60.641 75.1214C60.6154 75.0992 60.5902 75.0765 60.5655 75.0534L34.8512 51.9106C33.796 50.96 33.7112 49.3341 34.6616 48.279C34.7214 48.2125 34.7847 48.1492 34.8512 48.0894L60.5655 24.9466C61.6019 23.9757 63.2292 24.0287 64.2001 25.0652C65.171 26.1016 65.118 27.7289 64.0815 28.6998C64.0568 28.723 64.0316 28.7456 64.006 28.7677L40.4285 49.9999L64.0059 71.2321C65.08 72.1615 65.1972 73.7854 64.268 74.8593Z" fill="#DBDADA"/>
</g>
<defs>
<filter id="filter0_d" x="0" y="0" width="104" height="104" filterUnits="userSpaceOnUse" color-interpolation-filters="sRGB">
<feFlood flood-opacity="0" result="BackgroundImageFix"/>
<feColorMatrix in="SourceAlpha" type="matrix" values="0 0 0 0 0 0 0 0 0 0 0 0 0 0 0 0 0 0 127 0"/>
<feOffset dy="2"/>
<feGaussianBlur stdDeviation="8"/>
<feColorMatrix type="matrix" values="0 0 0 0 0 0 0 0 0 0 0 0 0 0 0 0 0 0 0.25 0"/>
<feBlend mode="normal" in2="BackgroundImageFix" result="effect1_dropShadow"/>
<feBlend mode="normal" in="SourceGraphic" in2="effect1_dropShadow" result="shape"/>
</filter>
</defs>
</svg>
