<svg width="72" height="72" viewBox="0 0 72 72" fill="none" xmlns="http://www.w3.org/2000/svg">
<path d="M35.9999 0C16.1177 0 0 16.1177 0 35.9999C0 55.8821 16.1177 71.9998 35.9999 71.9998C55.8821 71.9998 71.9998 55.8821 71.9998 35.9999C71.9998 16.1177 55.8823 0 35.9999 0ZM48.268 60.8593C47.3389 61.9333 45.7149 62.0507 44.641 61.1214C44.6154 61.0992 44.5902 61.0765 44.5655 61.0534L18.8512 37.9106C17.796 36.96 17.7112 35.3341 18.6616 34.279C18.7214 34.2125 18.7847 34.1493 18.8512 34.0894L44.5655 10.9466C45.6019 9.97568 47.2292 10.0287 48.2001 11.0652C49.171 12.1016 49.118 13.7289 48.0815 14.6998C48.0568 14.723 48.0316 14.7456 48.006 14.7677L24.4285 35.9999L48.0059 57.2321C49.08 58.1614 49.1972 59.7854 48.268 60.8593Z" fill="#D8D8D8"/>
</svg>
