<svg width="154" height="15" viewBox="0 0 154 15" fill="none" xmlns="http://www.w3.org/2000/svg">
<path d="M112.766 14H111.092V4.00998L107.204 10.004H106.322L102.434 4.00998V14H100.778V1.27398H102.596L106.826 7.89798L111.056 1.27398H112.766V14Z" fill="white"/>
<path d="M120.877 12.524C121.225 12.344 121.513 12.104 121.741 11.804C121.969 11.492 122.137 11.126 122.245 10.706C122.353 10.286 122.407 9.82998 122.407 9.33798C122.407 8.85798 122.353 8.40798 122.245 7.98798C122.137 7.56798 121.969 7.20798 121.741 6.90798C121.513 6.59598 121.225 6.34998 120.877 6.16998C120.529 5.98998 120.115 5.89998 119.635 5.89998C119.143 5.89998 118.723 5.98998 118.375 6.16998C118.027 6.34998 117.733 6.59598 117.493 6.90798C117.265 7.20798 117.097 7.56798 116.989 7.98798C116.881 8.40798 116.827 8.85798 116.827 9.33798C116.827 9.82998 116.881 10.286 116.989 10.706C117.097 11.126 117.265 11.492 117.493 11.804C117.733 12.104 118.027 12.344 118.375 12.524C118.723 12.704 119.143 12.794 119.635 12.794C120.115 12.794 120.529 12.704 120.877 12.524ZM122.893 12.848C122.533 13.268 122.077 13.598 121.525 13.838C120.985 14.066 120.355 14.18 119.635 14.18C118.915 14.18 118.279 14.066 117.727 13.838C117.187 13.598 116.725 13.268 116.341 12.848C115.969 12.416 115.687 11.906 115.495 11.318C115.303 10.718 115.207 10.058 115.207 9.33798C115.207 8.62998 115.303 7.98198 115.495 7.39398C115.687 6.79398 115.969 6.28398 116.341 5.86398C116.725 5.43198 117.187 5.10198 117.727 4.87398C118.279 4.63398 118.915 4.51398 119.635 4.51398C120.343 4.51398 120.967 4.63398 121.507 4.87398C122.059 5.10198 122.521 5.43198 122.893 5.86398C123.265 6.28398 123.547 6.79398 123.739 7.39398C123.931 7.98198 124.027 8.62998 124.027 9.33798C124.027 10.058 123.931 10.718 123.739 11.318C123.547 11.906 123.265 12.416 122.893 12.848Z" fill="white"/>
<path d="M127.665 14H126.297V0.589983L127.899 0.445984V5.68398C128.355 5.32398 128.829 5.04198 129.321 4.83798C129.813 4.62198 130.329 4.51398 130.869 4.51398C131.469 4.51398 131.997 4.64598 132.453 4.90998C132.921 5.17398 133.311 5.52798 133.623 5.97198C133.935 6.40398 134.169 6.90198 134.325 7.46598C134.493 8.02998 134.577 8.61198 134.577 9.21198C134.577 9.88398 134.481 10.52 134.289 11.12C134.109 11.72 133.839 12.248 133.479 12.704C133.119 13.16 132.675 13.52 132.147 13.784C131.631 14.048 131.037 14.18 130.365 14.18C129.909 14.18 129.459 14.114 129.015 13.982C128.571 13.838 128.181 13.628 127.845 13.352L127.665 14ZM127.899 12.074C128.223 12.29 128.577 12.464 128.961 12.596C129.357 12.728 129.759 12.794 130.167 12.794C130.647 12.794 131.061 12.698 131.409 12.506C131.769 12.314 132.063 12.05 132.291 11.714C132.519 11.378 132.687 10.994 132.795 10.562C132.903 10.13 132.957 9.66798 132.957 9.17598C132.957 8.73198 132.909 8.31198 132.813 7.91598C132.717 7.50798 132.567 7.15998 132.363 6.87198C132.171 6.57198 131.919 6.33798 131.607 6.16998C131.295 5.98998 130.929 5.89998 130.509 5.89998C130.053 5.89998 129.585 5.99598 129.105 6.18798C128.637 6.37998 128.235 6.59598 127.899 6.83598V12.074Z" fill="white"/>
<path d="M138.446 14H136.844V4.72998L138.446 4.58598V14ZM138.68 1.47198C138.68 1.75998 138.584 1.99998 138.392 2.19198C138.2 2.38398 137.948 2.47998 137.636 2.47998C137.324 2.47998 137.072 2.38398 136.88 2.19198C136.688 1.99998 136.592 1.75998 136.592 1.47198C136.592 1.17198 136.688 0.931984 136.88 0.751983C137.072 0.571983 137.324 0.481983 137.636 0.481983C137.948 0.481983 138.2 0.571983 138.392 0.751983C138.584 0.931984 138.68 1.17198 138.68 1.47198Z" fill="white"/>
<path d="M142.963 14H141.361V0.589983L142.963 0.445984V14Z" fill="white"/>
<path d="M152.863 13.298C152.419 13.598 151.909 13.82 151.333 13.964C150.757 14.108 150.199 14.18 149.659 14.18C148.927 14.18 148.285 14.06 147.733 13.82C147.181 13.58 146.719 13.244 146.347 12.812C145.975 12.368 145.693 11.846 145.501 11.246C145.321 10.634 145.231 9.96798 145.231 9.24798C145.231 8.61198 145.303 8.00598 145.447 7.42998C145.603 6.85398 145.843 6.34998 146.167 5.91798C146.491 5.48598 146.899 5.14398 147.391 4.89198C147.895 4.63998 148.495 4.51398 149.191 4.51398C149.815 4.51398 150.367 4.62198 150.847 4.83798C151.327 5.04198 151.729 5.32998 152.053 5.70198C152.377 6.07398 152.623 6.52398 152.791 7.05198C152.959 7.56798 153.043 8.13198 153.043 8.74398C153.043 9.18798 153.007 9.57798 152.935 9.91398H146.851C146.947 10.802 147.229 11.504 147.697 12.02C148.165 12.536 148.843 12.794 149.731 12.794C150.187 12.794 150.631 12.728 151.063 12.596C151.507 12.452 151.927 12.266 152.323 12.038L152.863 13.298ZM151.459 8.63598C151.447 8.23998 151.393 7.87398 151.297 7.53798C151.201 7.18998 151.063 6.89598 150.883 6.65598C150.703 6.40398 150.475 6.21198 150.199 6.07998C149.923 5.93598 149.593 5.86398 149.209 5.86398C148.813 5.86398 148.471 5.93598 148.183 6.07998C147.907 6.22398 147.673 6.42198 147.481 6.67398C147.301 6.92598 147.157 7.21998 147.049 7.55598C146.941 7.89198 146.869 8.25198 146.833 8.63598H151.459Z" fill="white"/>
<line x1="94.5" y1="2.18557e-08" x2="94.5" y2="15" stroke="white"/>
<path fill-rule="evenodd" clip-rule="evenodd" d="M48.8043 7.03658C48.8043 7.03658 47.9384 6.50245 47.403 6.29577C47.403 6.29577 45.7456 5.52947 45.4168 5.16489C45.4168 5.16489 44.7709 4.55761 45.1491 3.85226C45.1491 3.85226 45.3074 3.39071 45.99 3.39071C45.99 3.39071 46.8787 3.43947 46.8787 4.16809V5.19591H50.0634L50.0579 3.68215C50.0579 3.68215 50.3028 1.20318 46.3066 1.09403C46.3066 1.09403 43.1635 0.887905 42.262 2.57675C42.262 2.57675 41.9082 2.95353 41.9082 4.26561V5.21364C41.9082 5.21364 41.8721 6.30741 42.432 7.0122C42.432 7.0122 42.7486 7.47431 43.5284 7.98407C43.5284 7.98407 45.1119 8.83459 46.0622 9.32163C46.0622 9.32163 47.0214 9.86796 46.8953 10.7373C46.8953 10.7373 46.817 11.6299 45.8906 11.5934C45.8906 11.5934 45.0436 11.5557 45.0436 10.6802V9.65297H41.65V11.1451C41.65 11.1451 41.555 13.9987 45.9156 13.9987C45.9156 13.9987 50.0823 14.0829 50.2767 11.0703V9.85521C50.2767 9.85521 50.4239 8.009 48.8043 7.03658ZM32.4994 1.44919L31.433 8.11594H31.1836L30.165 1.50904H24.8452L24.5786 13.582H27.7284L27.7661 4.48558H28.0138L29.6834 13.5803H32.9971L34.6461 4.4889H34.8655L34.9416 13.582H38.108L37.767 1.44919H32.4994ZM13.7496 1.49962L11.654 13.5681H15.0448L16.2862 4.21075H16.565L17.8058 13.5681H21.1961L19.101 1.49962H13.7496ZM84.8999 6.87036V8.65063H85.7697V10.5617C85.7697 11.4959 84.9693 11.513 84.9693 11.513C83.9962 11.513 84.0329 10.6254 84.0329 10.6254V4.01516C84.0329 3.33419 84.8966 3.29762 84.8966 3.29762C85.7252 3.29762 85.7308 4.10991 85.7308 4.10991V5.11502H88.9233C89.0278 3.153 88.6357 2.67816 88.6357 2.67816C87.8436 0.903977 84.8477 1.00094 84.8477 1.00094C80.2438 1.00094 80.7548 4.52492 80.7548 4.52492V10.9163C80.8537 14.2214 85.3903 13.8856 85.467 13.8829C87.4848 13.6601 88.0941 13.0201 88.0941 13.0201C88.6551 12.6046 88.7995 12.0289 88.7995 12.0289C88.96 11.6937 89 10.6254 89 10.6254V6.87036H84.8999ZM74.3175 8.83459H74.1786L70.9389 1.45252H67.0626V13.5831H70.2174L70.0285 6.20213H70.1696L73.526 13.5831H77.2845V1.45141H74.0898L74.3175 8.83459ZM59.3617 10.5606C59.3617 10.5606 59.4073 11.5562 58.4819 11.5562C58.4819 11.5562 57.5088 11.6083 57.5088 10.5855L57.4988 1.45972H54.0386V10.5129C54.0386 10.5129 53.6837 13.9394 58.5308 13.9394C58.5308 13.9394 62.7431 13.9892 62.7431 10.6703V1.46027H59.3617V10.5606ZM7.15286 7.03658C7.15286 7.03658 6.28807 6.50245 5.75209 6.29633C5.75209 6.29633 4.09583 5.53058 3.76702 5.16544C3.76702 5.16544 3.12107 4.55705 3.49986 3.85337C3.49986 3.85337 3.6576 3.39181 4.33966 3.39181C4.33966 3.39181 5.22888 3.44002 5.22888 4.16864V5.19647H8.41477L8.40866 3.68215C8.40866 3.68215 8.65193 1.20318 4.65736 1.09458C4.65736 1.09458 4.35632 1.07519 3.91476 1.09735C3.91476 1.09735 1.4948 1.22701 0.629456 2.55127C0.624458 2.56124 0.617237 2.56845 0.612238 2.57731C0.612238 2.57731 0.258992 2.95353 0.258992 4.26616V5.2142C0.258992 5.2142 0.222333 6.30796 0.782752 7.01276C0.782752 7.01276 1.09934 7.47486 1.87915 7.98462C1.87915 7.98462 3.46209 8.83514 4.41242 9.32218C4.41242 9.32218 5.37274 9.8674 5.24555 10.7379C5.24555 10.7379 5.16723 11.6305 4.24135 11.5939C4.24135 11.5939 3.39433 11.5563 3.39433 10.6808V9.65297H0.000165493V11.1462C0.000165493 11.1462 -0.094811 13.9998 4.26579 13.9998C4.26579 13.9998 8.43143 14.084 8.62749 11.0714V9.85743C8.62749 9.85743 8.77301 8.009 7.15286 7.03658Z" fill="white"/>
</svg>
