<svg width="100" height="100" viewBox="0 0 100 100" fill="none" xmlns="http://www.w3.org/2000/svg">
<path d="M72.2656 25H27.7344C26.2266 25 25 26.2266 25 27.7344V72.2656C25 73.7734 26.2266 75 27.7344 75H72.2656C73.7734 75 75 73.7734 75 72.2656V27.7344C75 26.2266 73.7734 25 72.2656 25ZM32.8164 70.3125C31.0906 70.3125 29.6904 68.9133 29.6904 67.1875C29.6904 65.4617 31.0885 64.0625 32.8145 64.0625H32.8164C34.5422 64.0625 35.9414 65.4617 35.9414 67.1875C35.9414 68.9133 34.5422 70.3125 32.8164 70.3125ZM32.8164 35.9375C31.0906 35.9375 29.6904 34.5383 29.6904 32.8125C29.6904 31.0867 31.0885 29.6875 32.8145 29.6875H32.8164C34.5422 29.6875 35.9414 31.0867 35.9414 32.8125C35.9414 34.5383 34.5422 35.9375 32.8164 35.9375ZM67.1914 70.3125C65.4656 70.3125 64.0654 68.9133 64.0654 67.1875C64.0654 65.4617 65.4637 64.0625 67.1895 64.0625H67.1914C68.9174 64.0625 70.3164 65.4617 70.3164 67.1875C70.3164 68.9133 68.9172 70.3125 67.1914 70.3125ZM67.1914 35.9375C65.4656 35.9375 64.0654 34.5383 64.0654 32.8125C64.0654 31.0867 65.4637 29.6875 67.1895 29.6875H67.1914C68.9174 29.6875 70.3164 31.0867 70.3164 32.8125C70.3164 34.5383 68.9172 35.9375 67.1914 35.9375Z" fill="white"/>
<path d="M96.875 40.625C98.601 40.625 100 39.2258 100 37.5C100 35.7742 98.601 34.375 96.875 34.375H92.1875V28.125H96.875C98.601 28.125 100 26.7258 100 25C100 23.2742 98.601 21.875 96.875 21.875H92.1875V16.7969C92.1875 11.843 88.157 7.8125 83.2031 7.8125H78.125V3.125C78.125 1.39922 76.726 0 75 0C73.274 0 71.875 1.39922 71.875 3.125V7.8125H65.625V3.125C65.625 1.39922 64.226 0 62.5 0C60.774 0 59.375 1.39922 59.375 3.125V7.8125H53.125V3.125C53.125 1.39922 51.726 0 50 0C48.2742 0 46.875 1.39922 46.875 3.125V7.8125H40.625V3.125C40.625 1.39922 39.2258 0 37.5 0C35.7742 0 34.375 1.39922 34.375 3.125V7.8125H28.125V3.125C28.125 1.39922 26.7258 0 25 0C23.2742 0 21.875 1.39922 21.875 3.125V7.8125H16.7969C11.843 7.8125 7.8125 11.843 7.8125 16.7969V21.875H3.125C1.39922 21.875 0 23.2742 0 25C0 26.7258 1.39922 28.125 3.125 28.125H7.8125V34.375H3.125C1.39922 34.375 0 35.7742 0 37.5C0 39.2258 1.39922 40.625 3.125 40.625H7.8125V46.875H3.125C1.39922 46.875 0 48.2742 0 50C0 51.7258 1.39922 53.125 3.125 53.125H7.8125V59.375H3.125C1.39922 59.375 0 60.7742 0 62.5C0 64.2258 1.39922 65.625 3.125 65.625H7.8125V71.875H3.125C1.39922 71.875 0 73.2742 0 75C0 76.7258 1.39922 78.125 3.125 78.125H7.8125V83.2031C7.8125 88.157 11.843 92.1875 16.7969 92.1875H21.875V96.875C21.875 98.6008 23.2742 100 25 100C26.7258 100 28.125 98.6008 28.125 96.875V92.1875H34.375V96.875C34.375 98.6008 35.7742 100 37.5 100C39.2258 100 40.625 98.6008 40.625 96.875V92.1875H46.875V96.875C46.875 98.6008 48.2742 100 50 100C51.726 100 53.125 98.6008 53.125 96.875V92.1875H59.375V96.875C59.375 98.6008 60.774 100 62.5 100C64.226 100 65.625 98.6008 65.625 96.875V92.1875H71.875V96.875C71.875 98.6008 73.274 100 75 100C76.726 100 78.125 98.6008 78.125 96.875V92.1875H83.2031C88.157 92.1875 92.1875 88.157 92.1875 83.2031V78.125H96.875C98.601 78.125 100 76.7258 100 75C100 73.2742 98.601 71.875 96.875 71.875H92.1875V65.625H96.875C98.601 65.625 100 64.2258 100 62.5C100 60.7742 98.601 59.375 96.875 59.375H92.1875V53.125H96.875C98.601 53.125 100 51.7258 100 50C100 48.2742 98.601 46.875 96.875 46.875H92.1875V40.625H96.875ZM81.25 72.2656C81.25 77.2195 77.2195 81.25 72.2656 81.25H27.7344C22.7805 81.25 18.75 77.2195 18.75 72.2656V27.7344C18.75 22.7805 22.7805 18.75 27.7344 18.75H72.2656C77.2195 18.75 81.25 22.7805 81.25 27.7344V72.2656Z" fill="white"/>
</svg>
