<svg width="72" height="72" viewBox="0 0 72 72" fill="none" xmlns="http://www.w3.org/2000/svg">
<path d="M36.0001 0C55.8823 0 72 16.1177 72 35.9999C72 55.8821 55.8823 71.9998 36.0001 71.9998C16.1179 71.9998 0.000152588 55.8821 0.000152588 35.9999C0.000152588 16.1177 16.1177 0 36.0001 0ZM23.732 60.8593C24.6611 61.9333 26.2851 62.0507 27.359 61.1214C27.3846 61.0992 27.4098 61.0765 27.4345 61.0534L53.1488 37.9106C54.204 36.96 54.2888 35.3341 53.3384 34.279C53.2786 34.2125 53.2153 34.1493 53.1488 34.0894L27.4345 10.9466C26.3981 9.97568 24.7708 10.0287 23.7999 11.0652C22.829 12.1016 22.882 13.7289 23.9185 14.6998C23.9432 14.723 23.9684 14.7456 23.994 14.7677L47.5715 35.9999L23.9941 57.2321C22.92 58.1614 22.8028 59.7854 23.732 60.8593Z" fill="#D8D8D8"/>
</svg>
