<svg width="104" height="104" viewBox="0 0 104 104" fill="none" xmlns="http://www.w3.org/2000/svg">
<g filter="url(#filter0_d)">
<path d="M52.0001 14C71.8823 14 88 30.1177 88 49.9999C88 69.8821 71.8823 85.9998 52.0001 85.9998C32.1179 85.9998 16.0002 69.8821 16.0002 49.9999C16.0002 30.1177 32.1177 14 52.0001 14ZM39.732 74.8593C40.6611 75.9333 42.2851 76.0507 43.359 75.1214C43.3846 75.0992 43.4098 75.0765 43.4345 75.0534L69.1488 51.9106C70.204 50.96 70.2888 49.3341 69.3384 48.279C69.2786 48.2125 69.2153 48.1492 69.1488 48.0894L43.4345 24.9466C42.3981 23.9757 40.7708 24.0287 39.7999 25.0652C38.829 26.1016 38.882 27.7289 39.9185 28.6998C39.9432 28.723 39.9684 28.7456 39.994 28.7677L63.5715 49.9999L39.9941 71.2321C38.92 72.1615 38.8028 73.7854 39.732 74.8593Z" fill="#DBDADA"/>
</g>
<defs>
<filter id="filter0_d" x="0.000183105" y="0" width="104" height="104" filterUnits="userSpaceOnUse" color-interpolation-filters="sRGB">
<feFlood flood-opacity="0" result="BackgroundImageFix"/>
<feColorMatrix in="SourceAlpha" type="matrix" values="0 0 0 0 0 0 0 0 0 0 0 0 0 0 0 0 0 0 127 0"/>
<feOffset dy="2"/>
<feGaussianBlur stdDeviation="8"/>
<feColorMatrix type="matrix" values="0 0 0 0 0 0 0 0 0 0 0 0 0 0 0 0 0 0 0.25 0"/>
<feBlend mode="normal" in2="BackgroundImageFix" result="effect1_dropShadow"/>
<feBlend mode="normal" in="SourceGraphic" in2="effect1_dropShadow" result="shape"/>
</filter>
</defs>
</svg>
