<svg width="23" height="22" viewBox="0 0 23 22" fill="none" xmlns="http://www.w3.org/2000/svg">
<path d="M22.7078 20.4352L15.6833 13.4106C16.8179 11.9975 17.4972 10.2031 17.4972 8.25C17.4972 3.69389 13.8033 0 9.24719 0C4.69109 0 0.997192 3.69389 0.997192 8.25C0.997192 12.8061 4.69109 16.5 9.24719 16.5C11.1897 16.5 12.9751 15.8282 14.3847 14.7048L21.4114 21.7315C21.7694 22.0895 22.3498 22.0895 22.7078 21.7315C23.0659 21.3735 23.0659 20.7931 22.7078 20.4352ZM2.83058 8.25C2.83058 4.70641 5.70369 1.83335 9.24724 1.83335C12.7908 1.83335 15.6639 4.70641 15.6639 8.25C15.6639 10.0269 14.9414 11.6352 13.7742 12.7972C13.7741 12.7973 13.774 12.7974 13.7739 12.7975C13.7738 12.7976 13.7737 12.7976 13.7737 12.7977C12.6133 13.9527 11.0136 14.6667 9.24728 14.6667C5.70369 14.6667 2.83058 11.7936 2.83058 8.25Z" fill="white"/>
</svg>
