<svg width="22" height="22" viewBox="0 0 22 22" fill="none" xmlns="http://www.w3.org/2000/svg">
<path d="M5.41101 19.8C5.41101 19.1302 5.94332 18.6 6.59999 18.6C7.2632 18.6 7.80001 19.1368 7.80001 19.8C7.80001 20.4632 7.2632 21 6.59999 21C5.94332 21 5.41101 20.4698 5.41101 19.8Z" stroke="white" stroke-width="2"/>
<path d="M7.81001 11.1H7.21826L6.93345 11.6187L5.95154 13.407C5.83761 13.6108 5.79253 13.8257 5.79253 14.025C5.79253 14.7311 6.36109 15.3 7.06751 15.3H18.8V15.5H6.6C5.93677 15.5 5.39998 14.9632 5.39998 14.3C5.39998 14.093 5.45179 13.898 5.54882 13.7148L7.03034 11.0261L7.27737 10.5778L7.05814 10.1152L3.10366 1.77172L2.83269 1.20002H2.20002H1V1H2.9594L3.73322 2.62908L4.00442 3.20002H4.6365H20.9C20.956 3.20002 21 3.24504 21 3.3C21 3.32102 20.9946 3.33114 20.9943 3.33183L20.9904 3.33864L20.9866 3.34551L17.0562 10.4807C16.8447 10.8554 16.45 11.1 16.005 11.1H7.81001Z" stroke="white" stroke-width="2"/>
<path d="M16.411 19.8C16.411 19.1302 16.9433 18.6 17.6 18.6C18.2632 18.6 18.8 19.1368 18.8 19.8C18.8 20.4632 18.2632 21 17.6 21C16.9433 21 16.411 20.4698 16.411 19.8Z" stroke="white" stroke-width="2"/>
</svg>
