<svg width="127" height="100" viewBox="0 0 127 100" fill="none" xmlns="http://www.w3.org/2000/svg">
<path d="M102.9 24.5604H57.2771L48.202 13.7745C47.8967 13.4075 47.4392 13.2017 46.9622 13.2166H10.1537C4.53381 13.2575 0 17.8248 0 23.4446V89.7843C0.0068187 95.4234 4.57659 99.9932 10.2156 100H102.9C108.539 99.9932 113.109 95.4234 113.116 89.7843V34.7761C113.109 29.137 108.539 24.5672 102.9 24.5604Z" fill="white"/>
<path d="M116.302 11.3446H70.6665L61.5915 0.558648C61.2862 0.191678 60.8287 -0.0141226 60.3517 0.000754512H23.5555C18.4564 0.00912291 14.1445 3.77614 13.4514 8.82787H47.0118C48.7717 8.82353 50.4426 9.60024 51.5742 10.9479L59.3227 20.1593H102.9C110.96 20.1729 117.491 26.7037 117.505 34.7637V86.685C122.615 86.0474 126.452 81.7061 126.456 76.5561V21.5478C126.443 15.9376 121.912 11.3855 116.302 11.3446Z" fill="white"/>
</svg>
